<?xml version="1.0" encoding="UTF-8" standalone="no"?>
<svg width="36px" height="32px" viewBox="0 0 36 32" version="1.1" xmlns="http://www.w3.org/2000/svg" xmlns:xlink="http://www.w3.org/1999/xlink" xmlns:sketch="http://www.bohemiancoding.com/sketch/ns">
    <!-- Generator: Sketch 3.3.2 (12043) - http://www.bohemiancoding.com/sketch -->
    <title>Shape</title>
    <desc>Created with Sketch.</desc>
    <defs></defs>
    <g id="Page-1" stroke="none" stroke-width="1" fill="none" fill-rule="evenodd" sketch:type="MSPage">
        <g id="dowell_curves" sketch:type="MSLayerGroup" transform="translate(-202.000000, -1192.000000)" fill="#FFFFFF">
            <g id="_x31__x5F_" transform="translate(21.000000, 975.000000)" sketch:type="MSShapeGroup">
                <path d="M207.9,217.7 C207.3,217.4 206.5,217.6 206.2,218.2 C205.9,218.8 206.1,219.6 206.7,219.9 C211.5,222.6 214.5,227.6 214.5,233.1 C214.5,238.4 211.7,243.3 207.2,246 L200.4,233.2 C200.2,232.8 199.8,232.5 199.3,232.5 C198.8,232.5 198.4,232.8 198.2,233.2 L191.4,246 C186.9,243.3 184.1,238.4 184.1,233.1 C184.1,227.6 187.1,222.5 191.9,219.9 C192.5,219.6 192.7,218.8 192.4,218.2 C192.1,217.6 191.3,217.4 190.7,217.7 C185.1,220.8 181.6,226.7 181.6,233.1 C181.6,239.8 185.3,245.8 191.3,248.8 C191.5,248.9 191.7,248.9 191.9,248.9 C192.3,248.9 192.8,248.7 193,248.2 L199.3,236.4 L205.6,248.2 C205.9,248.8 206.7,249 207.3,248.7 C213.3,245.7 217,239.7 217,233 C217,226.7 213.5,220.8 207.9,217.7 L207.9,217.7 Z" id="Shape"></path>
            </g>
        </g>
    </g>
</svg>